<?xml version="1.0" encoding="utf-8"?>
<!-- Generator: Adobe Illustrator 22.1.0, SVG Export Plug-In . SVG Version: 6.00 Build 0)  -->
<svg version="1.1" id="Layer_1" xmlns="http://www.w3.org/2000/svg" xmlns:xlink="http://www.w3.org/1999/xlink" x="0px" y="0px"
	 viewBox="0 0 771.7 183.1" style="enable-background:new 0 0 771.7 183.1;" xml:space="preserve">
<style type="text/css">
	.st0{fill:#010101;}
</style>
<g>
	<path class="st0" d="M78.5,13.1H65.4V0H0v183.1h78.5V170h13.1V26.2H78.5V13.1z M65.4,39.2V157H26.2V39.2v0L65.4,39.2L65.4,39.2z"/>
	<polygon class="st0" points="758.7,78.5 758.7,52.3 771.7,52.3 771.7,26.2 745.6,26.2 745.6,39.2 745.6,39.2 745.6,39.2 
		732.5,39.2 732.5,65.4 732.5,65.4 719.4,65.4 719.4,91.6 706.3,91.6 706.3,91.6 706.3,91.6 706.3,26.2 680.2,26.2 680.2,183.1 
		706.3,183.1 706.3,130.8 706.3,130.8 706.3,130.8 719.4,130.8 719.4,143.9 732.5,143.9 732.5,143.9 732.5,143.9 732.5,170 
		745.6,170 745.6,183.1 771.7,183.1 771.7,157 758.7,157 758.7,130.8 745.6,130.8 745.6,104.6 732.5,104.6 732.5,104.6 732.5,91.6 
		732.5,91.6 732.5,91.6 745.6,91.6 745.6,78.5 745.6,78.5 745.6,78.5 	"/>
	<polygon class="st0" points="640.9,39.2 640.9,26.2 575.5,26.2 575.5,52.3 562.4,52.3 562.4,170 575.5,170 575.5,183.1 
		640.9,183.1 640.9,170 654,170 654,130.8 627.8,130.8 627.8,157 627.8,157 588.6,157 588.6,65.4 601.7,65.4 601.7,52.3 601.7,52.3 
		627.8,52.3 627.8,52.3 627.8,91.6 654,91.6 654,39.2 640.9,39.2 	"/>
	<polygon class="st0" points="457.8,183.1 536.3,183.1 536.3,157 484,157 484,117.7 523.2,117.7 523.2,91.6 484,91.6 484,52.3 
		536.3,52.3 536.3,26.2 457.8,26.2 	"/>
	<path class="st0" d="M418.6,39.2L418.6,39.2V26.2h-78.5v157h78.5V170h0h13.1V39.2H418.6L418.6,39.2z M405.5,157h-39.2V52.3h26.2
		v13.1h13.1V157z"/>
	<path class="st0" d="M300.8,39.2L300.8,39.2l0-13.1h-78.5v157h78.5V170h13.1V39.2H300.8L300.8,39.2z M287.8,157h-39.2h0v-39.2v0
		l0,0h39.2V157z M287.8,91.6h-39.2l0,0v0V52.3h0h39.2V91.6z"/>
	<polygon class="st0" points="170,157 170,157 143.9,157 143.9,157 143.9,26.2 117.7,26.2 117.7,183.1 196.2,183.1 196.2,26.2 
		170,26.2 	"/>
</g>
</svg>
