<?xml version="1.0" encoding="utf-8"?>
<!-- Generator: Adobe Illustrator 22.1.0, SVG Export Plug-In . SVG Version: 6.00 Build 0)  -->
<svg version="1.1" id="Layer_1" xmlns="http://www.w3.org/2000/svg" xmlns:xlink="http://www.w3.org/1999/xlink" x="0px" y="0px"
	 viewBox="0 0 482 74" style="enable-background:new 0 0 482 74;" xml:space="preserve">
<style type="text/css">
	.st0{fill:#231F20;}
</style>
<g>
	<path class="st0" d="M0.9,72V1.9h24.8c21.8,0,36.2,14.7,36.2,34.9C61.9,58.7,46.7,72,25.2,72H0.9z M25.2,57.6
		c14,0,21.6-8.3,21.6-20.7c0-11.7-7.4-20.5-21.1-20.5h-9.4v41.3H25.2z"/>
	<path class="st0" d="M114.5,1.9H130v41.4c0,19.5-9.9,30.1-28.2,30.1c-18.7,0-29.1-10.5-29.1-30V1.9h15.5v42.9
		c0,9.2,4.6,14.1,13.3,14.1c8.5,0,13-5.2,13-14.1V1.9z"/>
	<path class="st0" d="M144.3,72V1.9h35.3c15.1,0,20.3,8.8,20.3,17.7c0,9-4.7,13.5-9.4,14.9c5.5,1.9,10.3,6.6,10.3,16.4
		c0,12.6-7.4,21-23.3,21H144.3z M159.7,16.3v14.1h16.6c6,0,8.5-2.8,8.5-7.2c0-5.1-3.1-7-8.5-7H159.7z M159.7,40.7v16.9h15
		c7.7,0,10.5-2.9,10.5-8.8c0-5.2-3.4-8.2-8.5-8.2H159.7z"/>
	<path class="st0" d="M211.9,72V1.9h24.8c21.8,0,36.2,14.7,36.2,34.9c0,21.9-15.1,35.3-36.7,35.3H211.9z M236.3,57.6
		c14,0,21.6-8.3,21.6-20.7c0-11.7-7.4-20.5-21.1-20.5h-9.4v41.3H236.3z"/>
	<path class="st0" d="M304.5,72c-15.8,0-23.2-8.5-23.2-21c0-9.8,4.7-14.5,10.3-16.4c-4.7-1.5-9.4-6-9.4-14.9c0-9,5.1-17.7,20.3-17.7
		h29.6v14.4h-25.9c-5.5,0-8.6,1.9-8.6,7c0,4.4,2.6,7.2,8.6,7.2h23.2v10.3h-23.7c-5.1,0-8.5,3-8.5,8.2c0,5.9,2.7,8.7,10.5,8.7h24.5
		V72H304.5z"/>
	<path class="st0" d="M391.5,30.6C390.1,20,384.4,15,375.3,15c-10.9,0-17.4,8-17.4,21.9c0,14.3,6.8,21.9,17.4,21.9
		c9.2,0,14.7-5.8,16.1-15.2h15c-2,18.8-12.8,29.7-31.2,29.7c-19.9,0-32.9-13.5-32.9-36.4c0-22.1,12.9-36.3,32.8-36.3
		c18.6,0,30.1,11.7,31.3,29.9H391.5z"/>
	<path class="st0" d="M460,72l-26.7-29.6V72h-15.4V1.9h15.4v26.2l25.9-26.2h19.9l-33.4,31.8L481,72H460z"/>
</g>
</svg>
