<?xml version="1.0" encoding="utf-8"?>
<!-- Generator: Adobe Illustrator 22.0.1, SVG Export Plug-In . SVG Version: 6.00 Build 0)  -->
<svg version="1.1" id="Layer_1" xmlns="http://www.w3.org/2000/svg" xmlns:xlink="http://www.w3.org/1999/xlink" x="0px" y="0px"
	 viewBox="0 0 439 123.1" style="enable-background:new 0 0 439 123.1;" xml:space="preserve">
<style type="text/css">
	.st0{enable-background:new    ;}
	.st1{fill:#5E082C;}
</style>
<title>Asset 1</title>
<g id="Layer_2_1_">
	<g id="txt">
		<g class="st0">
			<path class="st1" d="M33.1,24.4c6.6,0,12.2,1.1,16.7,3.2c4.6,2.1,8.2,4.8,11,8.2c2.8,3.3,4.7,7,6,11.1c1.2,4,1.8,8,1.8,11.9
				c0,3.6-0.6,7.4-1.8,11.5c-1.2,4-3.2,7.8-6,11.2c-2.8,3.4-6.4,6.2-11,8.5c-4.6,2.2-10.1,3.4-16.7,3.4H10.6c-1.3,0-2.4-0.4-3.3-1.3
				C6.4,91.1,6,90.1,6,88.9V28.8c0-1.2,0.4-2.2,1.3-3.1c0.9-0.9,2-1.3,3.3-1.3H33.1z M22,36.4v44.9h13.3c5.8,0,10.1-2.1,13-6.2
				c2.9-4.1,4.3-9.6,4.3-16.3c0-14.9-5.8-22.4-17.4-22.4H22z"/>
			<path class="st1" d="M74.8,47.6c0-1.2,0.4-2.2,1.3-3.1c0.9-0.9,2-1.3,3.3-1.3h6.8c1.3,0,2.4,0.4,3.3,1.3c0.9,0.9,1.3,1.9,1.3,3.1
				V70c0,2.7,0.3,4.8,0.9,6.5s1.4,2.9,2.3,3.8c1,0.9,2.1,1.5,3.4,1.8c1.3,0.3,2.6,0.5,4,0.5s2.8-0.3,4.2-0.9
				c1.4-0.6,2.7-1.4,3.8-2.5c1.1-1.1,2.1-2.3,2.8-3.6c0.7-1.4,1.1-2.8,1.1-4.3V47.6c0-1.2,0.4-2.2,1.3-3.1c0.9-0.9,2-1.3,3.3-1.3
				h6.8c1.3,0,2.5,0.4,3.3,1.3c0.9,0.9,1.3,1.9,1.3,3.1v41.3c0,1.2-0.4,2.2-1.3,3.1c-0.9,0.9-2,1.3-3.3,1.3h-6.6
				c-1.3,0-2.4-0.4-3.2-1.3c-0.8-0.9-1.3-1.9-1.4-3.1l-0.1-0.8c-1.4,1.5-2.9,2.6-4.5,3.4c-1.6,0.8-3.2,1.4-4.6,1.7
				c-1.5,0.4-2.9,0.6-4.2,0.6C98.6,94,97.5,94,96.6,94c-6.9,0-12.3-1.9-16.1-5.8c-3.8-3.8-5.8-9.3-5.8-16.5V47.6z"/>
			<path class="st1" d="M154.7,88.9c-0.3,1.1-0.8,2.1-1.5,3c-0.7,0.9-1.7,1.4-3.1,1.4h-6.4c-1.3,0-2.5-0.4-3.3-1.3
				c-0.9-0.9-1.3-1.9-1.3-3.1V28.8c0-1.2,0.4-2.2,1.3-3.1c0.9-0.9,2-1.3,3.3-1.3h6.8c1.3,0,2.4,0.4,3.3,1.3c0.9,0.9,1.3,1.9,1.3,3.1
				L155,48.1c1.6-1.5,3.1-2.6,4.7-3.5c1.6-0.8,3.1-1.4,4.6-1.8c1.5-0.4,2.9-0.6,4.3-0.6c1.4-0.1,2.7-0.1,3.8-0.1
				c3.9,0,7.4,0.6,10.3,1.9c2.9,1.3,5.4,3,7.5,5.3c2,2.3,3.6,5,4.6,8.1c1,3.1,1.5,6.6,1.5,10.5c0,3.6-0.5,7-1.6,10.2
				c-1.1,3.2-2.6,5.9-4.5,8.3c-1.9,2.4-4.2,4.2-6.8,5.6c-2.6,1.4-5.5,2.1-8.7,2.1c-1.3,0-2.7,0-4.3-0.1c-1.6-0.1-3.3-0.3-5.1-0.7
				c-1.8-0.4-3.6-1-5.4-1.9c-1.8-0.9-3.5-2.1-5.1-3.8L154.7,88.9z M180.3,66.6c0-2.7-0.4-4.8-1.2-6.5c-0.8-1.7-1.8-3-3-4
				c-1.2-1-2.6-1.6-4.1-2c-1.5-0.4-3-0.5-4.4-0.5c-1.5,0-3,0.3-4.5,0.8c-1.5,0.5-2.9,1.2-4,2.1c-1.2,0.9-2.1,2-2.9,3.2
				c-0.7,1.3-1.1,2.7-1.1,4.2v7.9c0,1.5,0.4,2.9,1.1,4.2c0.7,1.3,1.7,2.5,2.9,3.5c1.2,1,2.7,1.7,4.3,2.3c1.6,0.5,3.4,0.8,5.3,0.8
				c1.6,0,3-0.3,4.5-1c1.4-0.7,2.6-1.6,3.7-2.9c1.1-1.3,1.9-2.8,2.6-4.6c0.7-1.8,1-3.9,1-6.2V66.6z"/>
		</g>
		<g class="st0">
			<path class="st1" d="M228.7,24.4c6.6,0,12.2,1.1,16.7,3.2c4.6,2.1,8.2,4.8,11,8.2c2.8,3.3,4.7,7,6,11.1c1.2,4,1.8,8,1.8,11.9
				c0,3.6-0.6,7.4-1.8,11.5c-1.2,4-3.2,7.8-6,11.2c-2.8,3.4-6.4,6.2-11,8.5c-4.6,2.2-10.1,3.4-16.7,3.4h-22.5
				c-1.3,0-2.4-0.4-3.3-1.3c-0.9-0.9-1.3-1.9-1.3-3.1V28.8c0-1.2,0.4-2.2,1.3-3.1c0.9-0.9,2-1.3,3.3-1.3H228.7z M217.5,36.4v44.9
				h13.3c5.8,0,10.1-2.1,13-6.2c2.9-4.1,4.3-9.6,4.3-16.3c0-14.9-5.8-22.4-17.4-22.4H217.5z"/>
			<path class="st1" d="M283.2,73.9c0.5,3.5,1.8,5.9,4.1,7c2.2,1.1,5.1,1.7,8.7,1.7c1.3,0,2.6-0.2,3.9-0.5c1.4-0.4,2.6-1,3.6-1.9
				c0.6-0.6,1.2-1.1,1.7-1.5c0.5-0.4,1.1-0.5,1.7-0.5h8.4c1.3,0,2.3,0.5,3.1,1.5c0.8,1,1.2,2.1,1.2,3.2c-1.6,3.1-4.5,5.8-8.5,7.9
				c-4,2.2-9,3.2-14.9,3.2c-5.6,0-10.2-0.8-13.9-2.4c-3.7-1.6-6.7-3.6-8.9-6.1c-2.2-2.5-3.8-5.3-4.7-8.4c-0.9-3.1-1.4-6.1-1.4-9
				c0-3,0.4-6,1.3-9.1c0.9-3.1,2.4-5.9,4.6-8.4c2.2-2.5,5.1-4.6,8.8-6.1c3.7-1.6,8.3-2.4,13.9-2.4c5.5,0,10,0.8,13.6,2.4
				c3.6,1.6,6.4,3.6,8.5,6.1c2.1,2.5,3.6,5.3,4.4,8.4c0.8,3.1,1.2,6.2,1.2,9.2v1.4c0,1.2-0.4,2.2-1.3,3.1c-0.9,0.9-2,1.3-3.3,1.3
				H283.2z M295.5,53.5c-1.3,0-2.5,0.1-3.7,0.2c-1.2,0.2-2.4,0.5-3.4,1.2c-1.1,0.6-2,1.6-2.9,2.8c-0.9,1.2-1.6,2.9-2.2,5h24.5
				c-0.6-2.1-1.4-3.8-2.2-5c-0.9-1.2-1.8-2.1-2.9-2.8c-1.1-0.6-2.2-1-3.4-1.2C298,53.6,296.7,53.5,295.5,53.5z"/>
		</g>
		<g class="st0">
			<path class="st1" d="M382.8,80.2c-0.6,2-1.6,3.8-2.8,5.4c-1.2,1.6-2.8,3.1-4.9,4.4c-2,1.3-4.6,2.2-7.5,2.9
				c-3,0.7-6.6,1.1-10.7,1.1c-5.6,0-10.3-0.8-14.1-2.3c-3.8-1.5-6.9-3.5-9.2-6c-2.3-2.5-4-5.3-5-8.4c-1-3.1-1.5-6.2-1.5-9.2
				s0.5-6.1,1.5-9.2c1-3.1,2.6-5.9,5-8.4c2.3-2.5,5.4-4.5,9.2-6.1c3.8-1.6,8.5-2.4,14.1-2.4c4.2,0,7.7,0.4,10.7,1.1
				c3,0.7,5.5,1.7,7.5,2.9c2,1.2,3.7,2.7,4.9,4.4c1.2,1.7,2.1,3.5,2.8,5.5c0,1.2-0.4,2.3-1.2,3.2c-0.8,1-1.8,1.5-3.1,1.5h-8
				c-1.5,0-2.6-0.7-3.3-2.1c-0.9-1.7-2.2-3-4.1-3.8c-1.8-0.8-3.9-1.2-6.3-1.2c-4.5,0-7.9,1.3-10.2,3.8c-2.4,2.5-3.5,6.1-3.5,10.8
				s1.2,8.3,3.5,10.8c2.4,2.5,5.8,3.7,10.2,3.7c2.4,0,4.5-0.4,6.3-1.2c1.8-0.8,3.2-2,4.1-3.8c0.7-1.4,1.8-2.1,3.3-2.1h8
				c1.3,0,2.3,0.5,3.1,1.5C382.4,78,382.8,79,382.8,80.2z"/>
			<path class="st1" d="M439.7,88.9c0,1.2-0.4,2.2-1.3,3.1c-0.9,0.9-2,1.3-3.3,1.3h-8.4c-0.7,0-1.6-0.3-2.6-0.8
				c-1-0.5-1.8-1.2-2.4-1.9l-16.7-19.8v18.1c0,1.2-0.4,2.2-1.3,3.1c-0.9,0.9-2,1.3-3.3,1.3h-6.8c-1.3,0-2.5-0.4-3.3-1.3
				c-0.9-0.9-1.3-1.9-1.3-3.1V28.8c0-1.2,0.4-2.2,1.3-3.1c0.9-0.9,2-1.3,3.3-1.3h6.8c1.3,0,2.4,0.4,3.3,1.3c0.9,0.9,1.3,1.9,1.3,3.1
				v31.3h1.9l14.2-14.8c0.5-0.7,1.3-1.2,2.2-1.5c0.9-0.3,1.8-0.5,2.5-0.5h8.9c1.3,0,2.4,0.4,3.3,1.3c0.9,0.9,1.3,1.9,1.3,3.1
				l-18.2,19.2L439.7,88.9z"/>
		</g>
	</g>
</g>
</svg>
